<?xml version="1.0" encoding="UTF-8" standalone="no"?>
<!DOCTYPE svg PUBLIC "-//W3C//DTD SVG 1.1//EN" "http://www.w3.org/Graphics/SVG/1.1/DTD/svg11.dtd"><svg width="100%"
    height="100%" viewBox="0 0 408 408" version="1.1" xmlns="http://www.w3.org/2000/svg"
    xmlns:xlink="http://www.w3.org/1999/xlink" xml:space="preserve" xmlns:serif="http://www.serif.com/"
    style="fill-rule:evenodd;clip-rule:evenodd;stroke-linejoin:round;stroke-miterlimit:2;">
    <rect id="Logo-Favicon" serif:id="Logo Favicon" x="0" y="0" width="408" height="408"
        style="fill:#f2e7e3;fill-opacity:0;" />
    <clipPath id="_clip1">
        <rect x="0" y="0" width="408" height="408" />
    </clipPath>
    <g clip-path="url(#_clip1)">
        <path
            d="M408,81.6l-0,244.8c-0,45.036 -36.564,81.6 -81.6,81.6l-244.8,0c-45.036,0 -81.6,-36.564 -81.6,-81.6l-0,-244.8c-0,-45.036 36.564,-81.6 81.6,-81.6l244.8,0c45.036,0 81.6,36.564 81.6,81.6Z"
            style="fill:#f2e7e3;" />
        <g id="Inner-Content" serif:id="Inner Content">
            <path
                d="M203.967,58.326c80.399,-0 145.674,65.274 145.674,145.674c-0,80.4 -65.275,145.674 -145.674,145.674c-80.4,0 -145.675,-65.274 -145.675,-145.674c0,-80.4 65.275,-145.674 145.675,-145.674Zm58.131,256.255c-19.214,-1.66 -20.163,-1.897 -20.163,-26.804l0,-18.028c6.405,3.321 13.996,9.014 26.331,9.014c28.227,-0 54.083,-29.177 54.083,-72.112c0,-37.004 -17.316,-60.725 -41.749,-60.725c-13.283,-0 -25.144,9.251 -38.665,21.111l0,-21.111l-1.897,-1.186c-12.81,11.148 -23.721,16.604 -42.224,16.604l0,4.507c16.605,0 22.298,1.661 22.298,17.079l0,104.847c0,24.907 -0.712,25.381 -17.553,26.804l-0,4.507l59.539,0l0,-4.507Zm8.065,-41.748c-13.521,-0 -25.381,-11.149 -28.228,-27.517l0,-46.493c0,-18.739 9.726,-40.325 28.94,-40.325c17.079,-0 27.279,18.739 27.279,59.302c-0,36.53 -10.437,55.033 -27.991,55.033Zm-64.521,3.558l0,-4.507c-16.842,-1.661 -17.79,-1.898 -17.79,-26.805l-0,-159.167l-1.898,-1.186c-12.809,11.148 -23.721,16.604 -42.223,16.604l-0,4.507c16.604,0 22.297,1.661 22.297,17.079l0,29.651c-5.93,-3.558 -15.655,-6.641 -25.618,-6.641c-28.465,-0 -54.321,26.33 -54.321,69.739c-0,39.377 18.739,63.098 42.935,63.098c14.944,-0 26.33,-9.251 37.004,-24.433l0,22.061l39.614,-0Zm-69.502,-8.54c-16.13,0 -26.567,-18.502 -26.567,-55.032c-0,-40.563 11.386,-59.303 29.651,-59.303c12.097,0 26.804,8.303 26.804,32.498l0,47.916c-5.218,22.772 -17.316,33.921 -29.888,33.921Z"
                style="fill:#090909;" />
            <path
                d="M204,21.6c100.669,0 182.4,81.731 182.4,182.4c0,100.669 -81.731,182.4 -182.4,182.4c-100.669,0 -182.4,-81.731 -182.4,-182.4c0,-100.669 81.731,-182.4 182.4,-182.4Zm0,12.768c93.622,-0 169.632,76.01 169.632,169.632c0,93.622 -76.01,169.632 -169.632,169.632c-93.622,0 -169.632,-76.01 -169.632,-169.632c-0,-93.622 76.01,-169.632 169.632,-169.632Z" />
        </g>
    </g>
</svg>