<?xml version="1.0" encoding="UTF-8" standalone="no"?>
<!DOCTYPE svg PUBLIC "-//W3C//DTD SVG 1.1//EN" "http://www.w3.org/Graphics/SVG/1.1/DTD/svg11.dtd"><svg width="100%"
    height="100%" viewBox="0 0 960 480" version="1.1" xmlns="http://www.w3.org/2000/svg"
    xmlns:xlink="http://www.w3.org/1999/xlink" xml:space="preserve" xmlns:serif="http://www.serif.com/"
    style="fill-rule:evenodd;clip-rule:evenodd;stroke-linejoin:round;stroke-miterlimit:2;">
    <rect id="Logo-Long" serif:id="Logo Long" x="0" y="0" width="960" height="480"
        style="fill:#f2e7e3;fill-opacity:0;" />
    <g id="Logo">
        <path
            d="M855.623,114l-0,251.234l-751.246,-0l0,-251.234l751.246,-0Zm-149.893,160.027c0,-0.96 -0.3,-1.8 -0.9,-2.52c-0.6,-0.72 -1.53,-1.08 -2.79,-1.08c-1.26,0 -2.76,0.81 -4.5,2.43c-1.74,1.62 -2.61,3.33 -2.61,5.13c0,1.8 0.99,2.7 2.97,2.7c1.98,0 3.78,-0.9 5.4,-2.7c1.62,-1.8 2.43,-3.12 2.43,-3.96Zm-483.593,3.302c-7.774,-0.776 -8.221,-1.16 -8.221,-13.166l0,-78.507l-0.936,-0.585c-6.318,5.499 -11.7,8.19 -20.826,8.19l0,2.223c8.19,0 10.998,0.819 10.998,8.424l0,14.625c-2.925,-1.755 -7.722,-3.276 -12.636,-3.276c-14.04,0 -26.793,12.987 -26.793,34.398c0,19.422 9.243,31.122 21.177,31.122c7.371,0 12.987,-4.563 18.252,-12.051l0,10.881l75.699,0l0,-2.223c-8.307,-0.819 -8.775,-0.936 -8.775,-13.221l0,-25.155c0,-10.881 6.903,-17.199 12.987,-17.199c5.031,0 10.413,3.51 10.413,18.72l0,23.634c0,12.285 -0.351,12.519 -8.658,13.221l0,2.223l56.394,0l0,-2.223c-8.307,-0.819 -8.775,-0.936 -8.775,-13.221l0,-25.155c0,-10.881 6.903,-17.199 12.987,-17.199c5.031,0 10.413,3.51 10.413,18.72l0,23.634c0,12.285 -0.351,12.519 -8.658,13.221l0,2.223l29.367,0l0,-2.223c-9.477,-0.819 -9.945,-0.936 -9.945,-13.221l0,-29.133c0,-13.338 -4.095,-19.773 -13.689,-19.773c-6.552,0 -10.53,2.925 -20.475,10.179l0,-9.594l-0.936,-0.585c-6.318,5.499 -11.7,8.19 -20.826,8.19l0,2.223c8.19,0 10.998,0.819 10.998,8.424l0,30.069c0,11.72 -0.319,12.472 -8.576,13.126c-8.425,-0.752 -8.857,-1.329 -8.857,-13.126l0,-29.133c0,-13.338 -4.095,-19.773 -13.689,-19.773c-6.552,0 -10.53,2.925 -20.475,10.179l0,-9.594l-0.936,-0.585c-6.318,5.499 -11.7,8.19 -20.826,8.19l0,2.223c8.19,0 10.998,0.819 10.998,8.424l0,30.069c0,11.96 -0.332,12.498 -9.095,13.166c-7.774,-0.776 -8.221,-1.16 -8.221,-13.166l0,-48.321l-0.936,-0.585c-6.318,5.499 -11.7,8.19 -20.826,8.19l0,2.223c8.19,0 10.998,0.819 10.998,8.424l0,30.069c0,11.96 -0.332,12.498 -9.095,13.166Zm-33.727,-1.934c-7.956,0 -13.104,-9.126 -13.104,-27.144c0,-20.007 5.616,-29.25 14.625,-29.25c5.967,0 13.221,4.095 13.221,16.029l0,23.634c-2.574,11.232 -8.541,16.731 -14.742,16.731Zm386.168,1.817c-6.685,-0.728 -7.088,-1.655 -7.088,-13.049l0,-31.473c0,-11.232 -4.563,-17.433 -15.561,-17.433c-10.998,0 -23.634,7.254 -23.634,14.157c0,2.457 1.521,5.148 5.967,5.148c10.53,0 1.638,-16.029 13.338,-16.029c6.435,0 9.126,5.265 9.126,17.316l0,12.636l-12.987,4.329c-12.636,4.212 -17.199,7.722 -17.199,14.859c0,5.967 3.393,13.104 12.402,13.104c6.552,0 12.636,-3.978 17.784,-7.956l0,6.786l48.555,0l0,-2.223c-11.817,-0.819 -12.285,-0.936 -12.285,-13.221l0,-19.422c0,-15.561 5.031,-22.932 10.179,-22.932c4.329,0 4.095,6.084 9.009,6.084c3.51,0 5.733,-3.042 5.733,-6.201c0,-0.282 -0.018,-0.556 -0.053,-0.822l2.159,0.354l0,46.8c0,8.19 5.382,12.753 12.753,12.753c6.201,0 10.881,-3.159 14.04,-6.903l-1.287,-2.106c-2.106,2.106 -4.797,3.861 -8.307,3.861c-4.212,0 -6.435,-2.574 -6.435,-9.243l0,-44.928l12.185,-1.198c2.718,0.66 3.861,2.011 6.184,7.867l20.124,51.363c-3.861,10.881 -6.903,15.795 -11.115,15.795c-4.68,0 -3.276,-6.084 -8.892,-6.084c-3.978,0 -5.031,3.159 -5.031,5.733c0,4.68 3.51,6.903 8.892,6.903c6.084,0 12.519,-2.808 20.943,-26.676l16.263,-46.215c2.808,-7.839 3.393,-8.307 8.541,-9.126l0,-2.223c-2.808,0.234 -5.967,0.468 -9.36,0.468c-3.276,0 -6.669,-0.234 -10.179,-0.468l0,2.223c5.265,0.468 7.488,0.936 7.488,3.978c0,1.989 -1.053,5.265 -2.691,10.413l-10.062,30.771l-12.402,-35.217c-1.053,-3.159 -1.755,-5.148 -1.755,-6.552c0,-2.574 2.223,-2.925 7.371,-3.393l0,-2.223c-4.563,0.234 -9.243,0.468 -13.806,0.468c-2.902,0 -5.71,-0.095 -8.424,-0.224l0,-0.244l-14.274,-1.638l0,-12.402l-2.223,0c-0.822,7.509 -5.534,12.667 -12.624,13.804c-1.56,-1.35 -3.945,-2.104 -6.798,-2.104c-5.499,0 -10.296,2.925 -16.146,10.647l0,-10.062l-2.106,-0.585c-5.148,5.499 -10.53,8.19 -19.656,8.19l0,2.223c8.19,0 10.998,0.819 10.998,8.424l0,30.069c0,11.267 -0.295,12.397 -7.654,13.049Zm-30.02,-2.636c-4.914,0 -7.02,-4.095 -7.02,-8.19c0,-4.68 2.34,-8.307 10.413,-10.998l8.775,-2.808l0,11.583c-0.936,7.605 -7.839,10.413 -12.168,10.413Zm218.232,-54.909c2.04,0 3.9,-0.93 5.58,-2.79c1.68,-1.86 2.52,-3.27 2.52,-4.23c0,-0.96 -0.33,-1.8 -0.99,-2.52c-0.66,-0.72 -1.62,-1.08 -2.88,-1.08c-1.26,0 -2.79,0.84 -4.59,2.52c-1.8,1.68 -2.7,3.45 -2.7,5.31c0,1.86 1.02,2.79 3.06,2.79Zm-526.644,-13.185c4.446,0 7.839,-3.393 7.839,-7.839c0,-4.446 -3.393,-7.956 -7.839,-7.956c-4.446,0 -7.956,3.51 -7.956,7.956c0,4.446 3.51,7.839 7.956,7.839Zm164.502,74.295c10.647,0 18.135,-7.488 23.166,-13.572l-1.404,-1.872c-4.914,5.148 -10.998,8.775 -16.614,8.775c-11.232,0 -17.55,-14.742 -17.667,-31.239l34.047,-3.51c0,-18.603 -10.764,-24.102 -20.124,-24.102c-15.795,0 -25.389,14.859 -25.389,34.281c0,20.709 11.232,31.239 23.985,31.239Zm-0.117,-62.127c3.51,0 9.828,1.872 10.53,18.72l-22.698,0c0.936,-10.998 5.031,-18.72 12.168,-18.72Zm68.615,3.975c0.043,-0.308 0.064,-0.62 0.064,-0.933c0,-3.978 -3.627,-6.435 -8.775,-6.435c-5.499,0 -10.296,2.925 -16.146,10.647l0,-10.062l-2.106,-0.585c-5.148,5.499 -10.53,8.19 -19.656,8.19l0,2.223c8.19,0 10.998,0.819 10.998,8.424l0,30.069c0,12.285 -0.351,12.519 -9.828,13.221l0,2.223l32.877,0l0,-2.223c-11.817,-0.819 -12.285,-0.936 -12.285,-13.221l0,-19.422c0,-15.561 5.031,-22.932 10.179,-22.932c4.329,0 4.095,6.084 9.009,6.084c2.138,0 3.798,-1.128 4.77,-2.723c5.523,0.342 7.515,1.933 7.515,8.339l0,51.714c0,12.285 -0.351,12.519 -8.658,13.221l0,2.223l29.367,0l0,-2.223c-9.477,-0.819 -9.945,-0.936 -9.945,-13.221l0,-8.892c3.159,1.638 6.903,4.446 12.987,4.446c13.923,0 26.676,-14.391 26.676,-35.568c0,-18.252 -8.541,-29.952 -20.592,-29.952c-6.552,0 -12.402,4.563 -19.071,10.413l0,-10.413l-0.936,-0.585c-5.236,4.558 -9.829,7.186 -16.444,7.953Zm31.303,55.227c-6.669,0 -12.519,-5.499 -13.923,-13.572l0,-22.932c0,-9.243 4.797,-19.89 14.274,-19.89c8.424,0 13.455,9.243 13.455,29.25c0,18.018 -5.148,27.144 -13.806,27.144Zm250.628,-15.938l0.013,0.053c0.381,-0.271 0.736,-0.518 1.067,-0.741c0.366,-0.233 0.73,-0.466 1.093,-0.699l7.38,-4.68c15,-9.36 22.98,-14.04 23.94,-14.04c0.36,0 0.54,0.06 0.54,0.18l-0.36,0.72c-3,3.84 -5.88,9.09 -8.64,15.75c-2.76,6.66 -4.56,10.71 -5.4,12.15c-0.84,1.44 -2.43,3.12 -4.77,5.04c-2.34,1.92 -4.83,2.88 -7.47,2.88c-2.64,0 -4.68,-0.75 -6.12,-2.25c-1.44,-1.5 -2.16,-3.03 -2.16,-4.59c0,-1.56 0.27,-2.76 0.81,-3.6c0.54,-0.84 1.23,-1.26 2.07,-1.26c0.48,0 0.81,0.54 0.99,1.62c0.18,1.08 0.84,1.62 1.98,1.62c1.14,0 2.1,-0.48 2.88,-1.44c0.78,-0.96 1.17,-1.98 1.17,-3.06c0,-1.92 -1.2,-2.88 -3.6,-2.88c-2.4,0 -4.47,0.9 -6.21,2.7c-1.74,1.8 -2.61,3.96 -2.61,6.48c0,2.52 1.02,4.74 3.06,6.66c2.04,1.92 4.68,2.88 7.92,2.88l0.18,0c1.32,0 4.44,-0.72 9.36,-2.16l5.04,-2.52c1.44,-0.72 3.48,-1.89 6.12,-3.51c2.64,-1.62 4.65,-2.85 6.03,-3.69c1.38,-0.84 3.75,-2.34 7.11,-4.5c3.36,-2.16 5.76,-3.66 7.2,-4.5l-0.18,-2.34l-20.16,12.78c-0.12,0.12 -0.33,0.18 -0.63,0.18c-0.3,0 -0.45,-0.24 -0.45,-0.72c0.36,-0.72 2.61,-5.91 6.75,-15.57c4.14,-9.66 7.11,-15.39 8.91,-17.19c0.36,-0.48 1.41,-1.56 3.15,-3.24c1.74,-1.68 3.09,-3.15 4.05,-4.41c0.96,-1.26 1.44,-2.16 1.44,-2.7c0,-0.54 -0.3,-0.81 -0.9,-0.81c-0.24,-0.12 -2.64,1.62 -7.2,5.22c-2.16,1.92 -4.14,3.6 -5.94,5.04l-4.86,2.88c-7.985,4.499 -18.185,10.685 -30.598,18.557l-0.002,-0.017l-15.84,9.9c-7.8,4.8 -12.9,7.92 -15.3,9.36l26.28,-33.48c1.92,-2.28 3.63,-4.32 5.13,-6.12c1.5,-1.8 2.58,-3.09 3.24,-3.87c0.66,-0.78 1.11,-1.29 1.35,-1.53c0.24,-0.24 0.36,-0.54 0.36,-0.9c0,-1.2 -1.26,-1.8 -3.78,-1.8c-2.52,0 -4.08,0.33 -4.68,0.99c-0.6,0.66 -2.25,2.67 -4.95,6.03c-2.7,3.36 -5.58,6.42 -8.64,9.18c-3.06,2.76 -5.97,5.07 -8.73,6.93c-2.76,1.86 -4.95,3.36 -6.57,4.5c-1.62,1.14 -2.79,1.95 -3.51,2.43l0.54,2.16c2.52,-1.68 5.22,-3.36 8.1,-5.04l6.48,-3.78c-5.16,7.08 -8.4,11.4 -9.72,12.96c-1.32,1.56 -2.82,3.39 -4.5,5.49c-1.68,2.1 -3.81,4.8 -6.39,8.1c-2.58,3.3 -4.95,6.27 -7.11,8.91c-38.28,25.92 -57.42,46.44 -57.42,61.56c0,0.96 0.33,1.89 0.99,2.79c0.66,0.9 1.53,1.35 2.61,1.35c2.04,0 6.24,-3.12 12.6,-9.36c12.96,-12.72 30.96,-33.48 54,-62.28l20.88,-12.96c4.368,-2.641 8.564,-5.239 12.587,-7.793Zm-100.427,86.993c0,-12.48 16.44,-30.54 49.32,-54.18c-29.88,37.56 -45.78,56.34 -47.7,56.34c-1.08,0 -1.62,-0.72 -1.62,-2.16Z" />
    </g>
    <ellipse cx="174" cy="68.403" rx="30" ry="30.003" />
    <ellipse cx="270" cy="68.403" rx="30" ry="30.003" />
    <ellipse cx="366" cy="68.403" rx="30" ry="30.003" />
    <ellipse cx="52.8" cy="169.711" rx="30" ry="30.003" />
    <ellipse cx="52.8" cy="258.003" rx="30" ry="30.003" />
    <ellipse cx="695.437" cy="410.403" rx="30" ry="30.003" />
    <ellipse cx="321.362" cy="410.403" rx="30" ry="30.003" />
    <ellipse cx="412.722" cy="410.403" rx="30" ry="30.003" />
    <ellipse cx="904.56" cy="306.088" rx="30" ry="30.003" />
    <ellipse cx="574.695" cy="68.403" rx="30" ry="30.003" />
    <ellipse cx="666.869" cy="68.403" rx="30" ry="30.003" />
    <ellipse cx="787.93" cy="410.403" rx="30" ry="30.003" />
</svg>