<?xml version="1.0" encoding="UTF-8" standalone="no"?>
<!DOCTYPE svg PUBLIC "-//W3C//DTD SVG 1.1//EN" "http://www.w3.org/Graphics/SVG/1.1/DTD/svg11.dtd"><svg width="100%"
    height="100%" viewBox="0 0 480 344" version="1.1" xmlns="http://www.w3.org/2000/svg"
    xmlns:xlink="http://www.w3.org/1999/xlink" xml:space="preserve" xmlns:serif="http://www.serif.com/"
    style="fill-rule:evenodd;clip-rule:evenodd;stroke-linejoin:round;stroke-miterlimit:2;">
    <rect id="Logo-Small-SVG" serif:id="Logo Small SVG" x="0" y="0" width="480" height="343.2"
        style="fill:#f2e7e3;fill-opacity:0;" />
    <g id="Inner-Content" serif:id="Inner Content">
        <path
            d="M167.575,38.553c70.811,-0 128.3,57.489 128.3,128.3c0,70.81 -57.489,128.299 -128.3,128.299c-70.81,0 -128.299,-57.489 -128.299,-128.299c-0,-70.811 57.489,-128.3 128.299,-128.3Zm51.199,225.692c-16.923,-1.463 -17.758,-1.672 -17.758,-23.608l-0,-15.878c5.64,2.925 12.326,7.939 23.189,7.939c24.862,0 47.633,-25.697 47.633,-63.51c0,-32.592 -15.25,-53.483 -36.769,-53.483c-11.699,-0 -22.145,8.148 -34.053,18.593l-0,-18.593l-1.672,-1.045c-11.281,9.819 -20.891,14.624 -37.187,14.624l0,3.97c14.624,-0 19.638,1.462 19.638,15.042l0,92.341c0,21.936 -0.627,22.354 -15.46,23.608l0,3.969l52.439,0l-0,-3.969Zm7.103,-36.77c-11.909,0 -22.354,-9.819 -24.861,-24.234l-0,-40.948c-0,-16.504 8.565,-35.516 25.487,-35.516c15.043,0 24.026,16.505 24.026,52.23c-0,32.173 -9.192,48.468 -24.652,48.468Zm-56.826,3.134l0,-3.969c-14.833,-1.463 -15.668,-1.672 -15.668,-23.608l-0,-140.183l-1.672,-1.045c-11.281,9.819 -20.892,14.624 -37.187,14.624l-0,3.97c14.624,-0 19.638,1.462 19.638,15.042l0,26.114c-5.223,-3.133 -13.788,-5.849 -22.563,-5.849c-25.07,-0 -47.842,23.19 -47.842,61.421c0,34.681 16.505,55.572 37.814,55.572c13.162,0 23.19,-8.147 32.591,-21.518l0,19.429l34.889,0Zm-61.212,-7.521c-14.207,0 -23.399,-16.295 -23.399,-48.469c-0,-35.724 10.028,-52.229 26.115,-52.229c10.654,0 23.607,7.312 23.607,28.622l0,42.201c-4.596,20.056 -15.251,29.875 -26.323,29.875Z"
            style="fill:#090909;" />
        <path
            d="M167.605,8.321c87.496,0 158.531,71.036 158.531,158.532c0,87.495 -71.035,158.531 -158.531,158.531c-87.496,-0 -158.531,-71.036 -158.531,-158.531c-0,-87.496 71.035,-158.532 158.531,-158.532Zm-0,7.927c83.121,-0 150.604,67.484 150.604,150.605c0,83.121 -67.483,150.604 -150.604,150.604c-83.121,0 -150.605,-67.483 -150.605,-150.604c0,-83.121 67.484,-150.605 150.605,-150.605Z" />
        <g>
            <path
                d="M308.833,204.947c0,1.33 -1.283,3.421 -3.849,6.272c-2.566,2.851 -5.417,4.277 -8.553,4.277c-3.136,-0 -4.704,-1.426 -4.704,-4.277c-0,-2.851 1.378,-5.559 4.134,-8.125c2.756,-2.566 5.132,-3.849 7.127,-3.849c1.996,-0 3.469,0.57 4.42,1.71c0.95,1.141 1.425,2.471 1.425,3.992Z"
                style="fill-rule:nonzero;" />
            <path
                d="M402.064,118.843c-3.231,0 -4.847,-1.473 -4.847,-4.419c0,-2.946 1.426,-5.749 4.277,-8.411c2.851,-2.661 5.275,-3.991 7.27,-3.991c1.996,-0 3.517,0.57 4.562,1.711c1.046,1.14 1.568,2.471 1.568,3.991c0,1.521 -1.33,3.754 -3.991,6.7c-2.661,2.946 -5.607,4.419 -8.839,4.419Zm-177.623,204.71c-0,2.281 0.855,3.421 2.566,3.421c3.041,0 28.225,-29.747 75.554,-89.24c-52.08,37.445 -78.12,66.051 -78.12,85.819Zm106.631,-137.709l-0.856,-3.421c1.141,-0.76 2.994,-2.043 5.56,-3.849c2.566,-1.806 6.035,-4.182 10.407,-7.128c4.371,-2.946 8.981,-6.605 13.827,-10.976c4.847,-4.372 9.409,-9.219 13.686,-14.541c4.276,-5.322 6.89,-8.506 7.84,-9.551c0.951,-1.046 3.422,-1.568 7.413,-1.568c3.992,-0 5.988,0.95 5.988,2.851c-0,0.57 -0.191,1.045 -0.571,1.425c-0.38,0.38 -1.093,1.188 -2.138,2.424c-1.045,1.235 -2.756,3.279 -5.132,6.13c-2.376,2.851 -5.084,6.082 -8.126,9.693l-41.626,53.031c3.802,-2.281 11.88,-7.223 24.235,-14.826l25.089,-15.681l0.285,3.707c-7.412,4.751 -15.205,9.598 -23.379,14.54l-33.072,20.528c-36.495,45.618 -65.006,78.5 -85.534,98.648c-10.073,9.884 -16.726,14.826 -19.957,14.826c-1.711,-0 -3.089,-0.713 -4.134,-2.138c-1.046,-1.426 -1.568,-2.899 -1.568,-4.42c-0,-23.949 30.316,-56.451 90.95,-97.507c3.421,-4.182 7.175,-8.886 11.262,-14.113c4.086,-5.227 7.46,-9.504 10.121,-12.83c2.661,-3.326 5.037,-6.225 7.128,-8.696c2.091,-2.471 7.223,-9.314 15.396,-20.528l-10.264,5.987c-4.562,2.661 -8.839,5.322 -12.83,7.983Z"
                style="fill-rule:nonzero;" />
            <path
                d="M386.953,183.564c-0.95,0.57 -2.09,1.33 -3.421,2.28l-0.855,-3.421c21.478,-13.685 38.965,-24.329 52.46,-31.932l7.698,-4.562c2.851,-2.281 5.987,-4.942 9.409,-7.983c7.222,-5.702 11.024,-8.458 11.404,-8.268c0.95,-0 1.426,0.427 1.426,1.283c-0,0.855 -0.761,2.281 -2.281,4.276c-1.521,1.996 -3.659,4.324 -6.415,6.986c-2.756,2.661 -4.419,4.371 -4.99,5.131c-2.851,2.852 -7.555,11.928 -14.113,27.229c-6.557,15.3 -10.121,23.521 -10.691,24.662c-0,0.76 0.237,1.14 0.713,1.14c0.475,0 0.807,-0.095 0.997,-0.285l31.933,-20.243l0.285,3.707c-2.281,1.33 -6.082,3.706 -11.405,7.127c-5.322,3.422 -9.076,5.798 -11.261,7.128c-2.186,1.331 -5.37,3.279 -9.552,5.845c-4.181,2.566 -7.412,4.419 -9.693,5.559c-2.281,1.141 -4.942,2.471 -7.983,3.992c-7.793,2.281 -12.735,3.421 -14.826,3.421l-0.285,0c-5.132,0 -9.314,-1.52 -12.545,-4.561c-3.231,-3.042 -4.847,-6.558 -4.847,-10.55c0,-3.991 1.378,-7.412 4.134,-10.264c2.756,-2.851 6.035,-4.276 9.836,-4.276c3.802,-0 5.703,1.52 5.703,4.562c-0,1.71 -0.618,3.326 -1.854,4.846c-1.235,1.521 -2.756,2.281 -4.561,2.281c-1.806,0 -2.851,-0.855 -3.137,-2.566c-0.285,-1.71 -0.807,-2.566 -1.568,-2.566c-1.33,0 -2.423,0.666 -3.278,1.996c-0.856,1.331 -1.283,3.231 -1.283,5.702c-0,2.471 1.14,4.895 3.421,7.271c2.281,2.376 5.512,3.564 9.694,3.564c4.181,-0 8.125,-1.521 11.832,-4.562c3.706,-3.041 6.225,-5.702 7.555,-7.983c1.331,-2.281 4.182,-8.696 8.553,-19.245c4.372,-10.549 8.934,-18.865 13.686,-24.947l0.57,-1.141c-0,-0.19 -0.285,-0.285 -0.855,-0.285c-1.521,0 -14.161,7.413 -37.92,22.239l-11.69,7.413Z"
                style="fill-rule:nonzero;" />
        </g>
    </g>
</svg>